<?xml version="1.0" encoding="UTF-8"?>
<!-- Generator: Adobe Illustrator 21.0.0, SVG Export Plug-In . SVG Version: 6.00 Build 0)  -->
<svg version="1.1" id="Capa_1"
	xmlns="http://www.w3.org/2000/svg"
	xmlns:xlink="http://www.w3.org/1999/xlink" x="0px" y="0px" viewBox="0 0 570 137" style="enable-background:new 0 0 570 137;" xml:space="preserve">
	<style type="text/css">
	.st0{fill:#f76400;}
	.st1{fill:#FFFFFF;}
	</style>
	<path class="st0" d="M561,135H231.8c-2.7,0-4.9-2.2-4.9-4.9V7.9c0-2.7,2.2-4.9,4.9-4.9H561c2.7,0,4.9,2.2,4.9,4.9v122.2  C565.9,132.8,563.7,135,561,135z"/>
	<g>
		<path class="st1" d="M240.5,76.6c0-4.8,0.8-9.4,2.5-13.6c1.7-4.3,4-8,7-11.2c3-3.2,6.6-5.7,10.8-7.5c4.2-1.8,8.8-2.8,13.9-2.8   c6.5,0,12.1,1.5,16.9,4.4c4.8,2.9,8.4,6.9,10.9,11.9l-8.7,2.8c-1.9-3.5-4.6-6.2-8-8.2s-7.2-3-11.4-3c-3.5,0-6.8,0.7-9.8,2.1   c-3,1.4-5.6,3.3-7.9,5.7c-2.2,2.4-4,5.3-5.2,8.6c-1.3,3.3-1.9,7-1.9,10.9c0,3.9,0.7,7.5,2,10.9s3.1,6.4,5.4,8.9   c2.3,2.5,4.9,4.5,7.9,5.9s6.2,2.2,9.6,2.2c2.2,0,4.4-0.3,6.5-0.9c2.1-0.6,4.1-1.5,6-2.6c1.8-1.1,3.4-2.3,4.7-3.7   c1.3-1.4,2.2-2.9,2.8-4.5l8.7,2.6c-1,2.5-2.4,4.7-4.2,6.8c-1.8,2.1-4,3.9-6.5,5.4c-2.5,1.5-5.2,2.7-8.3,3.5c-3,0.8-6.1,1.2-9.4,1.2   c-5,0-9.6-0.9-13.8-2.8c-4.2-1.9-7.8-4.5-10.9-7.7c-3.1-3.3-5.4-7.1-7.2-11.4C241.4,86.1,240.5,81.5,240.5,76.6z"/>
		<path class="st1" d="M344.6,112.3c-5,0-9.6-0.9-13.7-2.8c-4.2-1.9-7.7-4.4-10.8-7.7c-3-3.2-5.4-7-7-11.3c-1.7-4.3-2.5-8.8-2.5-13.5   c0-4.8,0.9-9.4,2.6-13.6c1.7-4.3,4.1-8,7.1-11.3c3-3.2,6.6-5.8,10.8-7.7c4.2-1.9,8.7-2.9,13.6-2.9c4.9,0,9.4,1,13.6,2.9   c4.2,1.9,7.7,4.5,10.8,7.7c3,3.2,5.4,7,7.1,11.3c1.7,4.3,2.6,8.8,2.6,13.6c0,4.7-0.9,9.2-2.6,13.5c-1.7,4.3-4.1,8-7.1,11.3   c-3,3.2-6.6,5.8-10.8,7.7C354,111.4,349.5,112.3,344.6,112.3z M319.8,77.1c0,3.9,0.6,7.4,1.9,10.7c1.3,3.3,3,6.2,5.2,8.7   c2.2,2.5,4.9,4.4,7.9,5.8c3,1.4,6.2,2.1,9.6,2.1s6.6-0.7,9.6-2.2c3-1.4,5.7-3.4,7.9-5.9c2.3-2.5,4.1-5.4,5.4-8.7   c1.3-3.3,2-6.9,2-10.8c0-3.8-0.7-7.3-2-10.7c-1.3-3.4-3.1-6.3-5.4-8.8c-2.3-2.5-4.9-4.5-7.9-5.9c-3-1.4-6.2-2.2-9.6-2.2   S338,50,335,51.5c-3,1.4-5.6,3.4-7.9,6c-2.2,2.5-4,5.5-5.3,8.9C320.5,69.7,319.8,73.3,319.8,77.1z"/>
		<path class="st1" d="M414.7,112.3c-5.3,0-10.5-0.9-15.6-2.6c-5.1-1.7-9.4-4.3-13.1-7.6l4.1-6c3.8,3.1,7.8,5.5,11.7,7.1   c4,1.6,8.2,2.4,12.8,2.4c5.5,0,9.9-1.1,13.2-3.3c3.3-2.2,4.9-5.4,4.9-9.5c0-1.9-0.4-3.5-1.3-4.8c-0.9-1.3-2.2-2.4-3.9-3.3   c-1.7-1-3.8-1.8-6.4-2.6c-2.6-0.7-5.6-1.5-9-2.3c-3.9-1-7.3-1.9-10.2-2.9c-2.9-1-5.3-2.1-7.2-3.3c-1.9-1.2-3.3-2.7-4.2-4.5   c-0.9-1.8-1.4-4-1.4-6.8c0-3.4,0.7-6.4,2-9.1c1.4-2.6,3.2-4.8,5.5-6.5c2.3-1.7,5-3,8.1-3.9c3.1-0.9,6.4-1.3,9.9-1.3   c5.2,0,10,0.9,14.3,2.6c4.3,1.7,7.7,4,10.4,6.8L435,56c-2.5-2.6-5.6-4.6-9.3-5.9c-3.6-1.3-7.4-2-11.4-2c-2.4,0-4.5,0.2-6.6,0.7   c-2,0.5-3.8,1.2-5.3,2.3c-1.5,1-2.7,2.4-3.6,4c-0.9,1.6-1.3,3.5-1.3,5.7c0,1.8,0.3,3.3,0.9,4.5c0.6,1.1,1.6,2.1,3,3   c1.4,0.8,3.2,1.6,5.3,2.2c2.1,0.7,4.7,1.3,7.8,2c4.4,1,8.2,2.1,11.5,3.1c3.3,1,6.1,2.3,8.3,3.7c2.2,1.4,3.9,3.1,5.1,5.1   c1.1,2,1.7,4.5,1.7,7.3c0,6.3-2.4,11.3-7.2,15C429.3,110.5,422.8,112.3,414.7,112.3z"/>
		<path class="st1" d="M487.2,107.7c-0.5,0.3-1.3,0.6-2.3,1c-1,0.4-2.2,0.9-3.5,1.3c-1.3,0.4-2.8,0.8-4.5,1.2   c-1.7,0.3-3.4,0.5-5.2,0.5c-1.9,0-3.8-0.3-5.5-0.8c-1.8-0.5-3.3-1.3-4.6-2.4c-1.3-1.1-2.4-2.5-3.1-4.1c-0.8-1.7-1.2-3.6-1.2-5.8   V49.7h-9.4v-7.1h9.4V19.5h8.9v23.1H482v7.1h-15.7v46.5c0.2,2.5,1,4.4,2.6,5.6c1.6,1.2,3.5,1.8,5.6,1.8c2.5,0,4.8-0.4,6.7-1.2   c1.9-0.8,3.2-1.4,3.7-1.8L487.2,107.7z"/>
		<path class="st1" d="M514.5,112.3c-3.5,0-6.7-0.5-9.6-1.6s-5.4-2.6-7.4-4.5c-2.1-1.9-3.7-4.2-4.8-6.7c-1.1-2.5-1.7-5.2-1.7-8   c0-3.1,0.7-6,2.1-8.6c1.4-2.6,3.4-4.8,5.9-6.6s5.6-3.3,9.1-4.3c3.5-1,7.5-1.5,11.7-1.5c3.4,0,6.9,0.3,10.5,0.9   c3.6,0.6,6.8,1.5,9.6,2.6v-6.2c0-6-1.7-10.8-5.2-14.4c-3.5-3.5-8.1-5.3-14-5.3c-3.7,0-7.3,0.7-11,2.1c-3.6,1.4-7.3,3.4-11.1,6   l-3.1-5.9c4.5-3,8.8-5.2,13-6.7c4.2-1.5,8.6-2.2,13.1-2.2c8.3,0,14.9,2.4,19.8,7.2c4.9,4.8,7.3,11.5,7.3,19.9v30.8   c0,2.4,1,3.7,3.1,3.7v7.9c-0.7,0.1-1.4,0.2-2,0.2c-0.6,0-1.1,0.1-1.6,0.1c-1.8,0-3.3-0.5-4.8-1.6s-2.3-2.6-2.4-4.7l-0.3-5.4   c-3,4-6.9,7.2-11.7,9.4C524.4,111.2,519.5,112.3,514.5,112.3z M516.8,105.5c3.9,0,7.8-0.9,11.7-2.6c3.9-1.7,7-4,9.3-7   c0.6-0.8,1.1-1.6,1.6-2.6c0.4-0.9,0.7-1.8,0.7-2.6V79.6c-3-1.1-6.1-2-9.3-2.6c-3.2-0.6-6.4-0.9-9.4-0.9c-6.4,0-11.6,1.3-15.5,3.9   c-4,2.6-6,6.1-6,10.7c0,1.8,0.3,3.6,1.1,5.4c0.7,1.8,1.8,3.3,3.2,4.7c1.4,1.4,3.2,2.5,5.3,3.4C511.4,105,513.9,105.5,516.8,105.5z"/>
	</g>
	<g>
		<path class="st0" d="M49,112.8c-6.9,0-13.2-1.4-18.9-4.1c-5.7-2.7-10.5-6.3-14.5-10.7c-4-4.4-7.1-9.5-9.4-15.1   C4,77.2,2.9,71.4,2.9,65.4c0-6.1,1.2-12,3.5-17.7c2.3-5.7,5.5-10.7,9.7-15c4.1-4.3,9.1-7.8,14.7-10.3c5.7-2.6,11.9-3.9,18.6-3.9   c6.9,0,13.2,1.4,18.9,4.1c5.7,2.7,10.5,6.3,14.5,10.7c4,4.5,7.1,9.5,9.3,15.2c2.2,5.7,3.3,11.4,3.3,17.3c0,6.1-1.2,12-3.5,17.7   c-2.3,5.7-5.5,10.7-9.6,15c-4.1,4.3-9,7.8-14.7,10.4C61.9,111.5,55.7,112.8,49,112.8z M24.8,65.6c0,3.6,0.5,7.1,1.6,10.4   c1,3.4,2.6,6.4,4.7,9c2.1,2.6,4.6,4.7,7.7,6.3c3.1,1.6,6.6,2.4,10.5,2.4c4.1,0,7.7-0.8,10.7-2.5c3.1-1.7,5.6-3.8,7.6-6.5   c2-2.7,3.5-5.7,4.5-9c1-3.4,1.5-6.8,1.5-10.3c0-3.6-0.5-7.1-1.6-10.4c-1-3.4-2.6-6.3-4.7-8.9c-2.1-2.6-4.7-4.6-7.7-6.2   c-3-1.5-6.5-2.3-10.4-2.3c-4.1,0-7.7,0.8-10.7,2.4c-3,1.6-5.5,3.7-7.6,6.4c-2.1,2.6-3.6,5.6-4.6,9C25.3,58.7,24.8,62.1,24.8,65.6z"/>
		<path class="st0" d="M105.9,16.4h21v71.1c0,5.2,2.2,7.9,6.7,7.9c1,0,2.2-0.2,3.5-0.5c1.3-0.3,2.4-0.8,3.5-1.4l2.8,15.7   c-2.6,1.2-5.6,2.2-9,2.9c-3.4,0.7-6.6,1-9.6,1c-6,0-10.7-1.6-13.9-4.7c-3.2-3.1-4.8-7.7-4.8-13.6V16.4z"/>
		<path class="st0" d="M182.9,113.3c-5.8,0-10.9-0.9-15.5-2.8s-8.5-4.4-11.7-7.7c-3.2-3.2-5.6-7-7.3-11.2c-1.7-4.2-2.5-8.7-2.5-13.3   c0-5,0.8-9.7,2.5-14.1c1.7-4.4,4.1-8.3,7.2-11.6c3.1-3.3,7-5.9,11.6-7.9c4.6-1.9,9.8-2.9,15.7-2.9c5.9,0,11,1,15.6,2.9   c4.5,1.9,8.4,4.5,11.5,7.8c3.1,3.3,5.5,7.1,7.1,11.3c1.6,4.3,2.4,8.8,2.4,13.5c0,1.2,0,2.4-0.1,3.6c-0.1,1.2-0.2,2.2-0.4,3.1h-50.8   c0.3,4.6,2,8.1,5,10.5c3,2.4,6.4,3.6,10.3,3.6c3.1,0,6-0.7,8.8-2.2c2.8-1.5,4.7-3.5,5.7-6l17.8,5c-2.7,5.4-6.9,9.8-12.6,13.2   C197.6,111.6,190.8,113.3,182.9,113.3z M197.4,71.1c-0.4-4.4-2-7.8-4.7-10.3c-2.7-2.5-6.1-3.8-10.1-3.8c-4.1,0-7.5,1.3-10.2,3.9   c-2.7,2.6-4.2,6-4.7,10.3H197.4z"/>
	</g>
</svg>